<svg width="662" height="655" viewBox="0 0 662 655" fill="none" xmlns="http://www.w3.org/2000/svg">
<g filter="url(#filter0_diii_37_7)">
<path d="M7.49994 27C-0.962264 39.2837 0.999936 47.5 0.999954 56H8.5C7.33333 51.8333 8.49994 37.6668 13.5 31C17.0505 26.266 34.5 14.5 54 14.5C91.863 14.5 119.782 33 129.5 58.5C138.085 81.0277 151 101.5 178.5 114.5C213.675 128.724 270.232 116.736 298 111.5C385.5 95 467 91.0001 513.5 97C576 107.5 622.5 127 622.5 178C622.5 198.112 622.5 214.907 615.5 231C605.992 252.86 560.5 257 536.5 266.5C518.547 273.606 498.667 294.333 491.5 306.5L499 314C550.5 229 635.5 306.5 632.5 178C629.5 49.5 379 87.9999 298 104C217 120 166 126.5 136.5 58.5C107 -9.50005 23 4.5 7.49994 27Z" fill="#DBDDE2"/>
</g>
<g filter="url(#filter1_diii_37_7)">
<path d="M288.197 277C288.197 285.5 286.235 293.716 294.697 306C310.197 328.5 394.197 342.5 423.697 274.5C453.197 206.5 502.5 212 583.5 228C615.792 234.584 626.204 245.603 625.5 258C625.075 265.482 581.916 264.444 564.5 262.5C528 262.5 497.807 277.551 454 302C430 315.395 413 351 450.5 346.5C471 340.5 480.5 333 496 308.5L492.5 305.5C492.5 305.5 481 331.672 450.5 338.5C420 345.328 443 316.556 461.5 306C502.478 282.618 520 269.5 564.5 267.5C593.5 270.136 630 270 630 259.5C630 237.043 617.857 231.557 585.197 221.5C557.429 216.264 500.872 204.277 465.697 218.5C438.197 231.5 425.282 251.972 416.697 274.5C406.979 300 379.06 318.5 341.197 318.5C321.697 318.5 304.248 306.734 300.697 302C295.697 295.333 294.53 281.167 295.697 277H288.197Z" fill="#DBDDE2"/>
<path d="M288.197 277C288.197 285.5 286.235 293.716 294.697 306C310.197 328.5 394.197 342.5 423.697 274.5C453.197 206.5 502.5 212 583.5 228C615.792 234.584 626.204 245.603 625.5 258C625.075 265.482 581.916 264.444 564.5 262.5C528 262.5 497.807 277.551 454 302C430 315.395 413 351 450.5 346.5C471 340.5 480.5 333 496 308.5L492.5 305.5C492.5 305.5 481 331.672 450.5 338.5C420 345.328 443 316.556 461.5 306C502.478 282.618 520 269.5 564.5 267.5C593.5 270.136 630 270 630 259.5C630 237.043 617.857 231.557 585.197 221.5C557.429 216.264 500.872 204.277 465.697 218.5C438.197 231.5 425.282 251.972 416.697 274.5C406.979 300 379.06 318.5 341.197 318.5C321.697 318.5 304.248 306.734 300.697 302C295.697 295.333 294.53 281.167 295.697 277H288.197Z" fill="url(#paint0_linear_37_7)" fill-opacity="0.2"/>
</g>
<g filter="url(#filter2_diii_37_7)">
<path d="M392.71 624.312C400.327 628.085 406.818 633.491 421.581 631.361C448.624 627.46 498.458 558.405 450.62 501.785C402.783 445.164 431.247 402.35 481.541 336.871C486.555 330.344 492.517 322.406 499.076 313.345L493.259 308.345C487.319 316.716 481.167 325.13 474.821 333.542C457.802 356.1 421.954 401.457 419.085 439.291C418.526 469.703 431.138 490.364 447.513 508.057C466.049 528.085 470.232 561.315 453.424 595.243C444.768 612.716 426.479 623.129 420.661 624.209C412.467 625.73 399.216 620.895 396 618C370.505 602.907 317.04 598.531 286.5 572.5C219.967 510.436 219.996 466.121 220 460.61L220 460.5C220 431 231.5 427.333 238.5 423.5C263.5 404.5 297.3 376.9 232.5 418.5C189.426 446.153 224.88 527.869 286.5 579.5C317.579 605.541 365.753 607.122 392.71 624.312Z" fill="#DBDDE2"/>
<path d="M392.71 624.312C400.327 628.085 406.818 633.491 421.581 631.361C448.624 627.46 498.458 558.405 450.62 501.785C402.783 445.164 431.247 402.35 481.541 336.871C486.555 330.344 492.517 322.406 499.076 313.345L493.259 308.345C487.319 316.716 481.167 325.13 474.821 333.542C457.802 356.1 421.954 401.457 419.085 439.291C418.526 469.703 431.138 490.364 447.513 508.057C466.049 528.085 470.232 561.315 453.424 595.243C444.768 612.716 426.479 623.129 420.661 624.209C412.467 625.73 399.216 620.895 396 618C370.505 602.907 317.04 598.531 286.5 572.5C219.967 510.436 219.996 466.121 220 460.61L220 460.5C220 431 231.5 427.333 238.5 423.5C263.5 404.5 297.3 376.9 232.5 418.5C189.426 446.153 224.88 527.869 286.5 579.5C317.579 605.541 365.753 607.122 392.71 624.312Z" fill="url(#paint1_linear_37_7)" fill-opacity="0.2"/>
</g>
<g filter="url(#filter3_di_37_7)">
<path d="M493 322C490.915 318.773 489.327 318.24 485 316.5L493 304L497.5 298C502.15 299.294 503.854 300.731 506 304L500 313L493 322Z" fill="#DBDDE2"/>
<path d="M493 322C490.915 318.773 489.327 318.24 485 316.5L493 304L497.5 298C502.15 299.294 503.854 300.731 506 304L500 313L493 322Z" fill="url(#paint2_linear_37_7)" fill-opacity="0.2"/>
</g>
<defs>
<filter id="filter0_diii_37_7" x="-2.19702" y="0.486389" width="663.774" height="329.514" filterUnits="userSpaceOnUse" color-interpolation-filters="sRGB">
<feFlood flood-opacity="0" result="BackgroundImageFix"/>
<feColorMatrix in="SourceAlpha" type="matrix" values="0 0 0 0 0 0 0 0 0 0 0 0 0 0 0 0 0 0 127 0" result="hardAlpha"/>
<feOffset dx="17" dy="4"/>
<feGaussianBlur stdDeviation="6"/>
<feComposite in2="hardAlpha" operator="out"/>
<feColorMatrix type="matrix" values="0 0 0 0 0 0 0 0 0 0 0 0 0 0 0 0 0 0 0.4 0"/>
<feBlend mode="normal" in2="BackgroundImageFix" result="effect1_dropShadow_37_7"/>
<feBlend mode="normal" in="SourceGraphic" in2="effect1_dropShadow_37_7" result="shape"/>
<feColorMatrix in="SourceAlpha" type="matrix" values="0 0 0 0 0 0 0 0 0 0 0 0 0 0 0 0 0 0 127 0" result="hardAlpha"/>
<feOffset dy="-3"/>
<feGaussianBlur stdDeviation="1.5"/>
<feComposite in2="hardAlpha" operator="arithmetic" k2="-1" k3="1"/>
<feColorMatrix type="matrix" values="0 0 0 0 0 0 0 0 0 0 0 0 0 0 0 0 0 0 0.25 0"/>
<feBlend mode="normal" in2="shape" result="effect2_innerShadow_37_7"/>
<feColorMatrix in="SourceAlpha" type="matrix" values="0 0 0 0 0 0 0 0 0 0 0 0 0 0 0 0 0 0 127 0" result="hardAlpha"/>
<feOffset dx="-3" dy="-3"/>
<feGaussianBlur stdDeviation="1.5"/>
<feComposite in2="hardAlpha" operator="arithmetic" k2="-1" k3="1"/>
<feColorMatrix type="matrix" values="0 0 0 0 0 0 0 0 0 0 0 0 0 0 0 0 0 0 0.25 0"/>
<feBlend mode="normal" in2="effect2_innerShadow_37_7" result="effect3_innerShadow_37_7"/>
<feColorMatrix in="SourceAlpha" type="matrix" values="0 0 0 0 0 0 0 0 0 0 0 0 0 0 0 0 0 0 127 0" result="hardAlpha"/>
<feOffset dy="7"/>
<feGaussianBlur stdDeviation="2"/>
<feComposite in2="hardAlpha" operator="arithmetic" k2="-1" k3="1"/>
<feColorMatrix type="matrix" values="0 0 0 0 1 0 0 0 0 1 0 0 0 0 1 0 0 0 0.6 0"/>
<feBlend mode="normal" in2="effect3_innerShadow_37_7" result="effect4_innerShadow_37_7"/>
</filter>
<filter id="filter1_diii_37_7" x="285" y="203.784" width="374" height="159.106" filterUnits="userSpaceOnUse" color-interpolation-filters="sRGB">
<feFlood flood-opacity="0" result="BackgroundImageFix"/>
<feColorMatrix in="SourceAlpha" type="matrix" values="0 0 0 0 0 0 0 0 0 0 0 0 0 0 0 0 0 0 127 0" result="hardAlpha"/>
<feOffset dx="17" dy="4"/>
<feGaussianBlur stdDeviation="6"/>
<feComposite in2="hardAlpha" operator="out"/>
<feColorMatrix type="matrix" values="0 0 0 0 0 0 0 0 0 0 0 0 0 0 0 0 0 0 0.43 0"/>
<feBlend mode="normal" in2="BackgroundImageFix" result="effect1_dropShadow_37_7"/>
<feBlend mode="normal" in="SourceGraphic" in2="effect1_dropShadow_37_7" result="shape"/>
<feColorMatrix in="SourceAlpha" type="matrix" values="0 0 0 0 0 0 0 0 0 0 0 0 0 0 0 0 0 0 127 0" result="hardAlpha"/>
<feOffset dy="-3"/>
<feGaussianBlur stdDeviation="1.5"/>
<feComposite in2="hardAlpha" operator="arithmetic" k2="-1" k3="1"/>
<feColorMatrix type="matrix" values="0 0 0 0 0 0 0 0 0 0 0 0 0 0 0 0 0 0 0.25 0"/>
<feBlend mode="normal" in2="shape" result="effect2_innerShadow_37_7"/>
<feColorMatrix in="SourceAlpha" type="matrix" values="0 0 0 0 0 0 0 0 0 0 0 0 0 0 0 0 0 0 127 0" result="hardAlpha"/>
<feOffset dx="-3" dy="-3"/>
<feGaussianBlur stdDeviation="1.5"/>
<feComposite in2="hardAlpha" operator="arithmetic" k2="-1" k3="1"/>
<feColorMatrix type="matrix" values="0 0 0 0 0 0 0 0 0 0 0 0 0 0 0 0 0 0 0.25 0"/>
<feBlend mode="normal" in2="effect2_innerShadow_37_7" result="effect3_innerShadow_37_7"/>
<feColorMatrix in="SourceAlpha" type="matrix" values="0 0 0 0 0 0 0 0 0 0 0 0 0 0 0 0 0 0 127 0" result="hardAlpha"/>
<feOffset dy="7"/>
<feGaussianBlur stdDeviation="2"/>
<feComposite in2="hardAlpha" operator="arithmetic" k2="-1" k3="1"/>
<feColorMatrix type="matrix" values="0 0 0 0 1 0 0 0 0 1 0 0 0 0 1 0 0 0 0.6 0"/>
<feBlend mode="normal" in2="effect3_innerShadow_37_7" result="effect4_innerShadow_37_7"/>
</filter>
<filter id="filter2_diii_37_7" x="210.517" y="300.345" width="317.559" height="347.498" filterUnits="userSpaceOnUse" color-interpolation-filters="sRGB">
<feFlood flood-opacity="0" result="BackgroundImageFix"/>
<feColorMatrix in="SourceAlpha" type="matrix" values="0 0 0 0 0 0 0 0 0 0 0 0 0 0 0 0 0 0 127 0" result="hardAlpha"/>
<feOffset dx="17" dy="4"/>
<feGaussianBlur stdDeviation="6"/>
<feComposite in2="hardAlpha" operator="out"/>
<feColorMatrix type="matrix" values="0 0 0 0 0 0 0 0 0 0 0 0 0 0 0 0 0 0 0.43 0"/>
<feBlend mode="normal" in2="BackgroundImageFix" result="effect1_dropShadow_37_7"/>
<feBlend mode="normal" in="SourceGraphic" in2="effect1_dropShadow_37_7" result="shape"/>
<feColorMatrix in="SourceAlpha" type="matrix" values="0 0 0 0 0 0 0 0 0 0 0 0 0 0 0 0 0 0 127 0" result="hardAlpha"/>
<feOffset dy="-3"/>
<feGaussianBlur stdDeviation="1.5"/>
<feComposite in2="hardAlpha" operator="arithmetic" k2="-1" k3="1"/>
<feColorMatrix type="matrix" values="0 0 0 0 0 0 0 0 0 0 0 0 0 0 0 0 0 0 0.25 0"/>
<feBlend mode="normal" in2="shape" result="effect2_innerShadow_37_7"/>
<feColorMatrix in="SourceAlpha" type="matrix" values="0 0 0 0 0 0 0 0 0 0 0 0 0 0 0 0 0 0 127 0" result="hardAlpha"/>
<feOffset dx="-3" dy="-3"/>
<feGaussianBlur stdDeviation="1.5"/>
<feComposite in2="hardAlpha" operator="arithmetic" k2="-1" k3="1"/>
<feColorMatrix type="matrix" values="0 0 0 0 0 0 0 0 0 0 0 0 0 0 0 0 0 0 0.25 0"/>
<feBlend mode="normal" in2="effect2_innerShadow_37_7" result="effect3_innerShadow_37_7"/>
<feColorMatrix in="SourceAlpha" type="matrix" values="0 0 0 0 0 0 0 0 0 0 0 0 0 0 0 0 0 0 127 0" result="hardAlpha"/>
<feOffset dy="7"/>
<feGaussianBlur stdDeviation="2"/>
<feComposite in2="hardAlpha" operator="arithmetic" k2="-1" k3="1"/>
<feColorMatrix type="matrix" values="0 0 0 0 1 0 0 0 0 1 0 0 0 0 1 0 0 0 0.6 0"/>
<feBlend mode="normal" in2="effect3_innerShadow_37_7" result="effect4_innerShadow_37_7"/>
</filter>
<filter id="filter3_di_37_7" x="485" y="296" width="23" height="26" filterUnits="userSpaceOnUse" color-interpolation-filters="sRGB">
<feFlood flood-opacity="0" result="BackgroundImageFix"/>
<feColorMatrix in="SourceAlpha" type="matrix" values="0 0 0 0 0 0 0 0 0 0 0 0 0 0 0 0 0 0 127 0" result="hardAlpha"/>
<feOffset dx="1" dy="-1"/>
<feGaussianBlur stdDeviation="0.5"/>
<feComposite in2="hardAlpha" operator="out"/>
<feColorMatrix type="matrix" values="0 0 0 0 0 0 0 0 0 0 0 0 0 0 0 0 0 0 0.14 0"/>
<feBlend mode="normal" in2="BackgroundImageFix" result="effect1_dropShadow_37_7"/>
<feBlend mode="normal" in="SourceGraphic" in2="effect1_dropShadow_37_7" result="shape"/>
<feColorMatrix in="SourceAlpha" type="matrix" values="0 0 0 0 0 0 0 0 0 0 0 0 0 0 0 0 0 0 127 0" result="hardAlpha"/>
<feOffset dy="-2"/>
<feGaussianBlur stdDeviation="2"/>
<feComposite in2="hardAlpha" operator="arithmetic" k2="-1" k3="1"/>
<feColorMatrix type="matrix" values="0 0 0 0 0 0 0 0 0 0 0 0 0 0 0 0 0 0 0.29 0"/>
<feBlend mode="normal" in2="shape" result="effect2_innerShadow_37_7"/>
</filter>
<linearGradient id="paint0_linear_37_7" x1="1026.2" y1="-175.5" x2="722.697" y2="155" gradientUnits="userSpaceOnUse">
<stop/>
<stop offset="1" stop-opacity="0"/>
</linearGradient>
<linearGradient id="paint1_linear_37_7" x1="314.848" y1="-237.859" x2="476.27" y2="180.812" gradientUnits="userSpaceOnUse">
<stop/>
<stop offset="1" stop-opacity="0"/>
</linearGradient>
<linearGradient id="paint2_linear_37_7" x1="500.5" y1="314.5" x2="490" y2="307.5" gradientUnits="userSpaceOnUse">
<stop/>
<stop offset="0.463542" stop-color="white" stop-opacity="0.69"/>
<stop offset="1"/>
</linearGradient>
</defs>
</svg>
