<svg width="104" height="102" viewBox="0 0 104 102" fill="none" xmlns="http://www.w3.org/2000/svg">
<mask id="path-1-inside-1_7_31" fill="white">
<path fill-rule="evenodd" clip-rule="evenodd" d="M51.1995 56.9148C67.0217 56.9148 79.8482 43.3274 79.8482 26.5666C79.8482 15.2877 74.0399 5.44589 65.419 0.214539C87.1777 6.22393 103.156 26.1623 103.156 49.8324C103.156 78.2588 80.1115 101.303 51.6851 101.303C23.2587 101.303 0.2146 78.2588 0.2146 49.8324C0.2146 26.8309 15.3025 7.35337 36.1213 0.756927C27.9757 6.10838 22.5508 15.6664 22.5508 26.5666C22.5508 43.3274 35.3773 56.9148 51.1995 56.9148Z"/>
</mask>
<path fill-rule="evenodd" clip-rule="evenodd" d="M51.1995 56.9148C67.0217 56.9148 79.8482 43.3274 79.8482 26.5666C79.8482 15.2877 74.0399 5.44589 65.419 0.214539C87.1777 6.22393 103.156 26.1623 103.156 49.8324C103.156 78.2588 80.1115 101.303 51.6851 101.303C23.2587 101.303 0.2146 78.2588 0.2146 49.8324C0.2146 26.8309 15.3025 7.35337 36.1213 0.756927C27.9757 6.10838 22.5508 15.6664 22.5508 26.5666C22.5508 43.3274 35.3773 56.9148 51.1995 56.9148Z" fill="#FEB848"/>
<path d="M65.419 0.214539L65.6852 -0.749375L64.9002 1.06945L65.419 0.214539ZM36.1213 0.756927L36.6704 1.5927L35.8193 -0.196365L36.1213 0.756927ZM78.8482 26.5666C78.8482 42.8302 66.4159 55.9148 51.1995 55.9148V57.9148C67.6275 57.9148 80.8482 43.8247 80.8482 26.5666H78.8482ZM64.9002 1.06945C73.2186 6.11724 78.8482 15.6328 78.8482 26.5666H80.8482C80.8482 14.9426 74.8612 4.77454 65.9378 -0.64037L64.9002 1.06945ZM65.1528 1.17845C86.4892 7.07121 102.156 26.6236 102.156 49.8324H104.156C104.156 25.701 87.8662 5.37665 65.6852 -0.749375L65.1528 1.17845ZM102.156 49.8324C102.156 77.7065 79.5592 100.303 51.6851 100.303V102.303C80.6638 102.303 104.156 78.8111 104.156 49.8324H102.156ZM51.6851 100.303C23.811 100.303 1.2146 77.7065 1.2146 49.8324H-0.7854C-0.7854 78.8111 22.7065 102.303 51.6851 102.303V100.303ZM1.2146 49.8324C1.2146 27.2793 16.0081 8.1788 36.4234 1.71022L35.8193 -0.196365C14.5969 6.52794 -0.7854 26.3825 -0.7854 49.8324H1.2146ZM23.5508 26.5666C23.5508 16.0003 28.8086 6.75767 36.6704 1.5927L35.5723 -0.0788455C27.1427 5.45908 21.5508 15.3325 21.5508 26.5666H23.5508ZM51.1995 55.9148C35.9831 55.9148 23.5508 42.8302 23.5508 26.5666H21.5508C21.5508 43.8247 34.7715 57.9148 51.1995 57.9148V55.9148Z" fill="black" mask="url(#path-1-inside-1_7_31)"/>
</svg>
